:SAMPLES-PER-SECOND 30
:FULLY-SPECIFIED
:DEGREES
123
root  30.898 39.4432 17.218 -168.354 -72.2449 165.567
RightUpLeg  5.15754 -11.1462 -6.33321
RightLeg  9.53118 -4.22045 0.310741
RightFoot  -12.4605 -0.0767737 0.783717
RightToes  2.21189e-009 0 -3.6325e-017
Spine  7.43522 2.10441 19.8726
Spine1  7.31772 7.17795 -15.5303
HEad  8.12778 2.52817 -5.72585
LeftShoulder1  -0.0379649 3.62141 -26.0959
LeftArm  -10.5918 15.5909 -45.3649
LeftForeArm  32.9472 -6.8425 -5.4425
LeftHand  -0.014702 3.83751 -0.132352
RightShoulder  -0.00938504 -3.53389 11.976
RightArm  14.9647 52.2703 71.8869
RightForeArm  25.9127 48.6211 10.7928
RightHand  -0.212405 -0.397524 -4.95818
LeftUpLeg  -14.3477 -4.50932 -1.83415
LeftLeg  16.1684 -4.14601 -1.0435
LeftFoot  -0.470663 0.147349 -1.526
LeftToes  -3.01956e-010 3.07132e-011 1.04116e-011
124
root  30.8353 39.472 17.4078 -167.829 -72.8381 165.325
RightUpLeg  5.06463 -11.0934 -6.4865
RightLeg  9.24977 -4.74049 0.254242
RightFoot  -12.177 -0.0742416 1.12658
RightToes  2.21189e-009 0 -3.6325e-017
Spine  6.54343 2.2497 19.2364
Spine1  7.39394 7.02177 -14.9132
HEad  9.85962 3.50759 -5.63713
LeftShoulder1  0.0125734 3.46448 -25.6829
LeftArm  -11.0868 15.2549 -45.0449
LeftForeArm  31.0878 -8.50374 -5.22803
LeftHand  -0.0804452 2.82975 1.17434
RightShoulder  -0.0388765 -3.7005 10.6802
RightArm  14.7411 54.7414 72.965
RightForeArm  26.2479 49.3318 11.0724
RightHand  -0.181295 -0.162648 -4.02486
LeftUpLeg  -13.3774 -2.73049 -0.742156
LeftLeg  15.2543 -3.13017 -0.647013
LeftFoot  -0.571703 0.125314 -1.29407
LeftToes  -3.01956e-010 3.07132e-011 1.04116e-011
125
root  30.7156 39.4772 17.5767 -167.568 -74.0615 164.938
RightUpLeg  5.68123 -10.9607 -6.50788
RightLeg  8.861 -5.94483 0.046759
RightFoot  -11.9546 -0.0732833 1.44661
RightToes  2.21189e-009 0 -3.6325e-017
Spine  6.31024 1.99249 18.2304
Spine1  6.91347 6.45591 -14.2137
HEad  10.951 2.6253 -5.05068
LeftShoulder1  0.0505059 3.34328 -25.2167
LeftArm  -10.4497 15.3022 -44.6776
LeftForeArm  28.1982 -10.8617 -5.29525
LeftHand  -0.287768 -1.23145 5.36217
RightShoulder  -0.0750979 -3.90939 10.3393
RightArm  13.3062 54.0481 72.6431
RightForeArm  29.4981 52.7592 12.4178
RightHand  -0.121736 -1.64216 -3.55043
LeftUpLeg  -11.5855 -0.105361 0.139868
LeftLeg  13.6005 -1.79291 -0.135837
LeftFoot  -0.568678 0.137709 -1.4258
LeftToes  -3.01956e-010 3.07132e-011 1.04116e-011
126
root  30.5009 39.5009 17.75 -165.913 -75.5213 163.03
RightUpLeg  6.70946 -11.295 -7.19726
RightLeg  8.38737 -6.91141 0.22953
RightFoot  -11.8774 -0.0716955 1.8667
RightToes  2.21189e-009 0 -3.6325e-017
Spine  5.80608 1.73972 16.6585
Spine1  6.97071 5.86262 -13.2726
HEad  11.1417 1.68623 -4.43312
LeftShoulder1  0.104092 3.17047 -24.9481
LeftArm  -9.55125 15.1378 -44.5907
LeftForeArm  25.9964 -13.4892 -4.97312
LeftHand  -0.0978267 1.80828 2.97733
RightShoulder  -0.111069 -4.09532 10.8456
RightArm  10.993 50.9229 70.5376
RightForeArm  32.6484 57.9503 15.1394
RightHand  -0.101888 -1.64468 -2.93333
LeftUpLeg  -9.22787 2.6253 0.441643
LeftLeg  11.2384 1.30583 0.671384
LeftFoot  0.263953 0.150453 -1.49017
LeftToes  -3.01956e-010 3.07132e-011 1.04116e-011
127
root  30.1914 39.5077 17.9585 -162.776 -76.9093 159.735
RightUpLeg  7.61853 -11.766 -8.24931
RightLeg  8.23506 -7.77283 0.38824
RightFoot  -12.012 -0.0683205 2.22809
RightToes  2.21189e-009 0 -3.6325e-017
Spine  4.73938 1.59314 15.191
Spine1  7.81252 5.52096 -12.8056
HEad  10.8394 1.33179 -4.14053
LeftShoulder1  0.0886389 3.21843 -24.8891
LeftArm  -7.84652 14.2893 -44.5285
LeftForeArm  23.6973 -16.0263 -4.6861
LeftHand  -0.0522536 3.74592 2.43903
RightShoulder  -0.119637 -4.09275 12.6338
RightArm  8.72187 45.9603 66.9167
RightForeArm  35.8277 63.7279 19.5179
RightHand  -0.1103 -1.53901 -3.06193
LeftUpLeg  -6.80324 4.17962 0.381692
LeftLeg  8.98458 5.99513 1.27876
LeftFoot  1.09784 0.182268 -1.73136
LeftToes  -3.01956e-010 3.07132e-011 1.04116e-011
128
root  29.8247 39.5248 18.1982 -158.72 -78.3772 155.623
RightUpLeg  8.7222 -12.0985 -9.24491
RightLeg  7.73267 -8.8236 0.557271
RightFoot  -12.0426 -0.064362 2.87684
RightToes  2.21189e-009 0 -3.6325e-017
Spine  3.64634 1.50206 13.5254
Spine1  8.68688 5.11103 -11.9924
HEad  9.7641 0.176942 -4.33276
LeftShoulder1  -0.0586863 3.68819 -25.5952
LeftArm  -5.77552 12.9223 -44.4694
LeftForeArm  22.0088 -18.2771 -4.39146
LeftHand  -0.0864522 2.51183 3.02068
RightShoulder  -0.0816022 -3.85419 14.9802
RightArm  7.50054 39.1131 62.8616
RightForeArm  41.2156 68.9412 25.3973
RightHand  -0.191645 -1.18108 -5.23455
LeftUpLeg  -4.89661 5.82975 0.227619
LeftLeg  7.275 6.43682 0.275541
LeftFoot  -0.0535563 0.118012 -1.21118
LeftToes  -3.01956e-010 3.07132e-011 1.04116e-011
